<?xml version="1.0" encoding="utf-8"?>
<!-- Generator: Adobe Illustrator 19.2.1, SVG Export Plug-In . SVG Version: 6.00 Build 0)  -->
<svg version="1.1" id="layer" xmlns="http://www.w3.org/2000/svg" xmlns:xlink="http://www.w3.org/1999/xlink" x="0px" y="0px"
	 viewBox="0 0 652 652" style="enable-background:new 0 0 652 652;" xml:space="preserve">
<style type="text/css">
	.st0{fill:#E11000;}
	.st1{fill:#FFFFFF;}
</style>
<circle class="st0" cx="322" cy="321" r="250"/>
<circle class="st1" cx="322" cy="321" r="243.7"/>
<circle class="st0" cx="322" cy="321" r="237.7"/>
<path class="st1" d="M482.7,188.3v186.3h19v27h-19V454h-53v-52.7H314v-27L429.7,188h53V188.3z M343.3,374.7h86.3v-140L343.3,374.7z
	 M273,291c12.3,0,22,10,22,22v118.3c-4,15-5.7,17.3-22,22H164.3c-13.3-4-18.3-6.3-22-22v-118c0-12.3,10-22,22-22h8
	c-13.3-4.3-21.3-15-21.3-35.7v-29.3c0-21,17-38,38-38h55.3c21,0,38,17,38,38v29.3c0,21-4.7,31.7-19,35.7L273,291z M228.3,283
	c3.3,0,6.3-2.7,6.3-6.3V212c0-3.3-3-6.3-6.3-6.3h-19c-3.3,0-6.3,2.7-6.3,6.3v64.7c0,3.3,3,6.3,6.3,6.3H228.3z M233,436.3
	c7,0,12.7-5.7,12.7-12.7V315.3c0-7-5.7-12.7-12.7-12.7h-28.3c-7,0-12.7,5.7-12.7,12.7v108.3c0,7,5.7,12.7,12.7,12.7
	C204.7,436.3,233,436.3,233,436.3z"/>
<path class="st0" d="M509.3,116.3c0-10,8-17.3,17.7-17.3c9.3,0,17.3,7.3,17.3,17.3s-8,17.3-17.3,17.3S509.3,126.3,509.3,116.3z
	 M527,130.7c7.7,0,14-6,14-14.3c0-8-6-14.3-14-14.3s-14,6-14,14.3C513,124.7,519,130.7,527,130.7z M523.3,126.3h-3v-20h7.7
	c4.7,0,7,1.7,7,5.7c0,3.7-2.3,5-5,5.3l5.7,8.7h-3.3l-5.3-8.7h-3.3v9H523.3z M527,115c2.7,0,5-0.3,5-3.3c0-2.3-2.3-3-4.3-3h-4v6h3.3
	V115z"/>
</svg>
