<svg xmlns="http://www.w3.org/2000/svg" width="736" height="736" viewBox="0 0 736 736" version="1.1"><path d="M 339 1.093 C 254.702 8.375, 182.299 40.008, 118.902 97.253 C 59.864 150.563, 17.533 228.717, 5.025 307.500 C 4.414 311.350, 3.687 315.850, 3.410 317.500 C 1.905 326.452, 0.025 354.503, 0.025 368 C 0.025 381.497, 1.905 409.548, 3.410 418.500 C 3.687 420.150, 4.414 424.650, 5.025 428.500 C 20.574 526.438, 79.066 617.225, 162.759 673.323 C 224.323 714.588, 294.384 735.975, 368 735.975 C 441.616 735.975, 511.677 714.588, 573.241 673.323 C 656.771 617.335, 715.500 526.318, 730.891 429 C 733.478 412.646, 733.944 408.827, 734.589 398.724 C 734.967 392.797, 735.664 387.707, 736.138 387.415 C 736.612 387.122, 737 377.882, 737 366.882 C 737 355.881, 736.611 347.123, 736.135 347.417 C 735.659 347.711, 734.962 343.125, 734.585 337.226 C 733.944 327.169, 733.477 323.349, 730.891 307 C 723.007 257.148, 702.972 206.943, 673.331 162.759 C 617.129 78.982, 526.478 20.580, 428.500 5.025 C 424.650 4.414, 420.150 3.687, 418.500 3.410 C 401.096 0.484, 359.929 -0.715, 339 1.093 M 339.500 7.081 C 262.449 14.022, 195.923 41.048, 137 89.345 C 126.142 98.245, 98.412 125.953, 89.306 137 C 23.433 216.921, -4.928 318.751, 9.964 421.878 C 17.979 477.387, 41.434 534.444, 75.374 581 C 95.618 608.768, 125.600 638.949, 153 659.140 C 189.758 686.226, 233.347 707.174, 275.390 717.956 C 352.774 737.803, 429.350 733.096, 502.500 703.998 C 537.137 690.220, 568.819 671.394, 599 646.655 C 609.952 637.678, 637.678 609.952, 646.655 599 C 712.851 518.240, 740.950 417.400, 726.036 314.122 C 716.899 250.844, 689.067 188.743, 646.655 137 C 637.678 126.048, 609.952 98.322, 599 89.345 C 531.997 34.425, 451.006 5.503, 366 6.139 C 356.375 6.211, 344.450 6.635, 339.500 7.081 M 346 17.579 C 283.600 22.789, 234.783 38.351, 183.685 69.323 C 138.611 96.643, 96.136 139.345, 68.423 185.201 C 40.894 230.752, 25.776 275.203, 18.837 331 C 17.113 344.859, 17.113 391.141, 18.837 405 C 23.444 442.045, 31.296 472.543, 44.196 503.500 C 78.943 586.887, 146.767 655.254, 230 690.793 C 260.972 704.017, 293.422 712.490, 331 717.163 C 344.859 718.887, 391.141 718.887, 405 717.163 C 461.300 710.161, 505.650 694.962, 552.315 666.677 C 597.389 639.357, 639.864 596.655, 667.577 550.799 C 695.106 505.248, 710.224 460.797, 717.163 405 C 718.887 391.141, 718.887 344.859, 717.163 331 C 716.445 325.225, 714.771 314.198, 713.443 306.496 C 695.996 205.286, 632.656 115.210, 542.612 63.554 C 501.303 39.856, 458.948 25.826, 409.500 19.460 C 398.198 18.005, 355.904 16.752, 346 17.579 M 347.500 35.581 C 286.441 40.086, 233.201 57.992, 184.025 90.562 C 106.418 141.964, 54.138 223.292, 39.107 316 C 36.218 333.817, 35.574 343.297, 35.574 368 C 35.574 392.703, 36.218 402.183, 39.107 420 C 49.721 485.466, 78.819 545.644, 122.758 593 C 175.096 649.409, 240.712 684.686, 316 696.893 C 333.817 699.782, 343.297 700.426, 368 700.426 C 392.703 700.426, 402.183 699.782, 420 696.893 C 520.353 680.623, 606.131 621.378, 657.296 533 C 678.994 495.521, 692.788 453.042, 699.186 404 C 700.811 391.552, 700.811 344.448, 699.186 332 C 694.732 297.857, 688.282 272.233, 677.036 244 C 639.604 150.030, 558.337 76.314, 461.500 48.491 C 430.055 39.457, 407.552 36.116, 374.500 35.573 C 362.400 35.375, 350.250 35.378, 347.500 35.581 M 400.894 58.372 C 401.766 59.423, 400.621 65.932, 396.014 86.122 C 392.703 100.630, 389.496 114.750, 388.886 117.500 C 388.276 120.250, 387.137 123.010, 386.356 123.634 C 385.233 124.530, 386.437 125.108, 392.090 126.384 C 398.905 127.923, 404.021 128.456, 401.250 127.338 C 400.563 127.060, 400 126.054, 400 125.102 C 400 122.989, 408.606 84.240, 409.780 81.067 C 410.509 79.095, 411.971 81.136, 420.945 96.649 C 426.624 106.467, 433.659 118.550, 436.577 123.500 C 442.728 133.934, 443.642 136, 442.107 136 C 441.498 136, 441 136.342, 441 136.759 C 441 137.398, 454.850 141.002, 457.300 141 C 457.740 141, 457.692 140.272, 457.194 139.381 C 456.598 138.318, 457.110 134.291, 458.688 127.631 C 460.009 122.059, 463.126 108.275, 465.615 97 C 468.932 81.976, 470.651 76.060, 472.052 74.854 C 473.872 73.288, 473.622 73.132, 466.859 71.604 C 457.959 69.594, 456.378 69.545, 457.855 71.325 C 458.661 72.297, 458.560 74.231, 457.474 78.575 C 456.660 81.834, 454.457 91.400, 452.579 99.834 C 450.701 108.268, 448.940 115.394, 448.665 115.669 C 448.390 115.944, 445.577 111.743, 442.415 106.334 C 436.834 96.790, 422.666 72.760, 418.822 66.321 C 417.014 63.292, 417.008 63.095, 418.698 62.149 C 420.290 61.258, 420.217 61.097, 417.986 60.579 C 400.016 56.404, 399.170 56.295, 400.894 58.372 M 334.750 58.735 C 332.137 58.941, 330 59.535, 330 60.055 C 330 60.575, 330.643 61, 331.428 61 C 332.416 61, 333.021 62.617, 333.391 66.250 C 334.061 72.819, 335.593 89.675, 337.005 106 C 337.600 112.875, 338.278 120.054, 338.513 121.954 C 338.794 124.220, 338.388 126.019, 337.334 127.183 C 335.804 128.874, 336.126 128.929, 344.114 128.332 C 351.884 127.751, 359.089 126.224, 354.817 126.063 C 353.892 126.029, 352.909 125.213, 352.633 124.250 C 352.357 123.287, 350.897 108.602, 349.388 91.616 C 346.716 61.535, 346.693 60.697, 348.514 59.366 C 350.170 58.155, 349.764 58.020, 344.941 58.180 C 341.949 58.279, 337.363 58.529, 334.750 58.735 M 273.500 70.608 C 266.219 73.770, 263.584 75.382, 263.808 76.538 C 263.978 77.411, 260.990 83.834, 257.170 90.812 C 253.349 97.791, 248.757 106.200, 246.964 109.500 C 245.171 112.800, 243.573 115.661, 243.411 115.858 C 243.089 116.250, 241.713 113.186, 235.994 99.344 C 233.291 92.801, 232.519 89.881, 233.289 89.111 C 235.588 86.812, 233.173 87.303, 225.274 90.740 C 218.771 93.569, 217.350 94.545, 218.480 95.409 C 220.198 96.721, 219.331 94.737, 240.146 145 C 242.583 150.883, 243.868 155.354, 243.523 156.742 L 242.966 158.984 248.233 156.861 C 262.258 151.206, 261.235 151.807, 258.917 150.596 C 257.611 149.914, 255.332 145.914, 252.878 140 L 248.936 130.500 252.641 123.393 L 256.345 116.286 262.423 119.501 C 265.765 121.269, 273.450 125.307, 279.500 128.474 C 291.836 134.931, 293.211 135.850, 292.430 137.113 C 291.506 138.608, 293.147 138.153, 302.736 134.254 C 311.229 130.802, 313.965 129, 310.713 129 C 310.005 129, 305.842 127.139, 301.463 124.866 C 287.994 117.872, 263.545 104.878, 263.193 104.526 C 263.009 104.343, 264.531 101.112, 266.574 97.346 C 278.146 76.016, 281.366 70.327, 282.767 68.744 C 283.622 67.778, 284.136 66.825, 283.911 66.627 C 283.685 66.428, 279 68.220, 273.500 70.608 M 516.637 105.408 C 512.275 107.027, 507.508 111.185, 505.411 115.200 C 503.601 118.664, 503.597 126.321, 505.403 129.813 C 507.226 133.337, 515.499 141.071, 525.289 148.403 C 537.726 157.717, 540.644 163.168, 535.686 167.826 C 532.671 170.658, 528.405 170.602, 521.779 167.643 C 507.541 161.286, 493.795 145.989, 496.977 140.043 C 498.776 136.682, 498.154 136.778, 490 141.123 C 481.853 145.464, 480.900 146.364, 483.424 147.333 C 484.208 147.633, 485.641 149.594, 486.608 151.690 C 488.933 156.724, 502.129 169.640, 509.240 173.840 C 518.894 179.543, 525.865 181.950, 532.800 181.976 C 539.725 182.002, 543.117 180.669, 547.136 176.339 C 555.191 167.662, 554.854 157.670, 546.201 148.636 C 544.166 146.511, 538 141.412, 532.500 137.306 C 517.404 126.036, 515.173 122.369, 520.747 117.984 C 524.003 115.423, 528.715 115.803, 535.342 119.160 C 546.958 125.044, 559.568 139.471, 557.594 144.617 C 556.803 146.678, 558.286 146.333, 565.481 142.785 C 571.654 139.741, 573.537 138.024, 570.750 137.980 C 570.063 137.969, 568.150 135.671, 566.500 132.872 C 555.646 114.464, 530.117 100.402, 516.637 105.408 M 175 129.051 C 175 129.892, 171.145 132.358, 165.825 134.919 C 144.977 144.959, 131.468 165.072, 133.368 183.247 C 135.314 201.864, 154.529 216.583, 172.102 212.916 C 191.144 208.943, 209.192 191.004, 213.044 172.219 C 213.689 169.074, 214.629 165.991, 215.133 165.368 C 215.784 164.563, 214.091 163.896, 209.275 163.062 C 205.549 162.416, 201.713 161.730, 200.750 161.537 C 198.797 161.147, 198.383 162.501, 200.126 163.578 C 200.857 164.029, 201.067 166.321, 200.725 170.093 C 199.384 184.889, 183.190 200.348, 169 200.379 C 162.047 200.394, 156.654 197.686, 151.123 191.402 C 142.136 181.193, 143.442 168.926, 154.808 156.774 C 162.214 148.856, 175.320 142.361, 178.524 145.020 C 180.506 146.665, 180.473 144.846, 178.362 136.206 C 176.787 129.758, 175 125.954, 175 129.051 M 346.467 143.982 C 318.409 146.955, 291.315 154.816, 266.720 167.120 C 224.699 188.141, 188.141 224.699, 167.120 266.720 C 150.739 299.465, 143.537 330.395, 143.537 368 C 143.537 405.710, 150.694 436.444, 167.120 469.280 C 188.141 511.301, 224.699 547.859, 266.720 568.880 C 299.465 585.261, 330.395 592.463, 368 592.463 C 388.647 592.463, 398.038 591.555, 415.493 587.871 C 500.938 569.837, 569.837 500.938, 587.871 415.493 C 591.555 398.038, 592.463 388.647, 592.463 368 C 592.463 347.353, 591.555 337.962, 587.871 320.507 C 573.701 253.369, 527.117 194.464, 465 165.138 C 444.142 155.291, 423.077 148.783, 401.500 145.521 C 388.778 143.597, 358.176 142.741, 346.467 143.982 M 352 149.562 C 333 151.685, 326.735 152.710, 315.451 155.542 C 286.063 162.917, 258.137 176.292, 234.968 194.087 C 222.834 203.407, 203.407 222.834, 194.087 234.968 C 172.218 263.440, 157.163 298.928, 151.335 335.744 C 148.978 350.636, 148.978 385.364, 151.335 400.256 C 157.163 437.072, 172.218 472.560, 194.087 501.032 C 203.407 513.166, 222.834 532.593, 234.968 541.913 C 257.554 559.261, 285.410 572.757, 313.662 580.042 C 333.740 585.219, 343.248 586.317, 368 586.317 C 392.752 586.317, 402.260 585.219, 422.338 580.042 C 450.590 572.757, 478.446 559.261, 501.032 541.913 C 513.166 532.593, 532.593 513.166, 541.913 501.032 C 563.782 472.560, 578.837 437.072, 584.665 400.256 C 587.004 385.482, 587.039 350.616, 584.730 335.951 C 578.945 299.212, 563.773 263.429, 541.913 234.968 C 532.593 222.834, 513.166 203.407, 501.032 194.087 C 472.865 172.453, 436.518 156.953, 401.098 151.471 C 391.819 150.035, 359.141 148.764, 352 149.562 M 343 161.542 C 286.835 168.489, 236.585 197.408, 202.283 242.524 C 154.946 304.785, 146.748 388.904, 181.166 459.199 C 216.068 530.480, 288.863 575.983, 368 575.983 C 482.438 575.983, 575.983 482.438, 575.983 368 C 575.983 252.897, 481.488 159.130, 366.500 160.130 C 359.350 160.193, 348.775 160.828, 343 161.542 M 347.500 179.105 C 301.382 184.722, 261.216 204.704, 230.216 237.453 C 171.839 299.124, 161.302 391.364, 204.315 464.197 C 254.997 550.017, 362.430 582.239, 451.700 538.394 C 545.869 492.143, 584.650 378.479, 538.394 284.300 C 506.254 218.861, 439.080 177.363, 366.526 178.126 C 359.912 178.196, 351.350 178.637, 347.500 179.105 M 358.622 206.250 C 337.861 270.688, 333.817 283, 333.416 283 C 333.183 283, 310.894 271.949, 283.886 258.443 C 256.878 244.937, 234.566 234.101, 234.303 234.363 C 233.873 234.793, 238.616 244.232, 259.998 285.500 C 272.413 309.461, 284.193 333.141, 283.845 333.439 C 283.655 333.601, 272.250 337.358, 258.500 341.788 C 189.346 364.069, 179 367.482, 179 368.012 C 179 368.328, 185.637 370.731, 193.750 373.352 C 201.863 375.973, 215.250 380.301, 223.500 382.971 C 231.750 385.640, 248.625 391.071, 261 395.039 C 273.375 399.007, 283.658 402.392, 283.852 402.562 C 284.311 402.965, 273.902 423.570, 243.552 482.330 C 238.203 492.686, 234.054 501.388, 234.333 501.667 C 234.790 502.124, 243.998 497.505, 285.500 476.002 C 309.461 463.587, 333.141 451.807, 333.439 452.155 C 333.601 452.345, 337.433 463.975, 341.954 478 C 346.476 492.025, 351.631 508, 353.410 513.500 C 355.189 519, 359.063 531.038, 362.019 540.250 C 364.974 549.462, 367.666 557, 368 557 C 368.334 557, 371.026 549.462, 373.981 540.250 C 376.937 531.038, 380.811 519, 382.590 513.500 C 384.369 508, 389.524 492.025, 394.046 478 C 398.567 463.975, 402.399 452.345, 402.561 452.155 C 402.859 451.807, 426.539 463.587, 450.500 476.002 C 492.002 497.505, 501.210 502.124, 501.667 501.667 C 502.124 501.210, 497.505 492.002, 476.002 450.500 C 463.557 426.482, 451.808 402.859, 452.155 402.555 C 452.345 402.389, 462.625 399.007, 475 395.039 C 487.375 391.071, 504.250 385.640, 512.500 382.971 C 520.750 380.301, 534.138 375.973, 542.250 373.352 C 550.362 370.731, 557 368.328, 557 368.012 C 557 367.482, 546.654 364.069, 477.500 341.788 C 463.750 337.358, 452.345 333.601, 452.155 333.439 C 451.807 333.141, 463.587 309.461, 476.002 285.500 C 497.505 243.998, 502.124 234.790, 501.667 234.333 C 501.210 233.876, 492.002 238.495, 450.500 259.998 C 426.539 272.413, 402.859 284.193, 402.561 283.845 C 402.399 283.655, 398.646 272.250, 394.220 258.500 C 371.640 188.349, 368.557 179, 368.003 179 C 367.672 179, 363.451 191.262, 358.622 206.250 M 587.908 183.831 C 572.682 189.986, 564 201.875, 564 216.569 C 564 232.567, 575.367 250.612, 589.959 257.779 C 594.670 260.092, 596.773 260.500, 604 260.500 C 611.115 260.500, 613.425 260.066, 618.175 257.840 C 633.838 250.497, 642.100 235.414, 639.039 219.750 C 636.324 205.861, 626.071 191.614, 614.573 185.756 C 606.714 181.751, 595.121 180.914, 587.908 183.831 M 593.703 196.383 C 579.042 201.843, 572.838 214.586, 578.071 228.493 C 581.099 236.542, 589.500 245.066, 596.254 246.942 C 604.525 249.239, 613.585 246.570, 620.738 239.729 C 631.812 229.135, 627.410 207.185, 612.453 198.419 C 607.088 195.275, 599.027 194.400, 593.703 196.383 M 365.655 203.750 C 364.690 206.912, 359.835 222.100, 354.867 237.500 C 349.900 252.900, 341.799 278.100, 336.866 293.500 C 331.932 308.900, 327.466 322.541, 326.941 323.812 C 326.071 325.920, 327.847 328.001, 346.993 347.300 L 368 368.475 368 283.238 C 368 236.357, 367.868 198, 367.706 198 C 367.544 198, 366.621 200.588, 365.655 203.750 M 89.223 230.515 C 86.900 235.198, 85 239.252, 85 239.523 C 85 239.795, 85.805 239.514, 86.789 238.900 C 88.272 237.974, 93.597 240.293, 117.878 252.439 C 139.671 263.340, 147.035 267.467, 146.620 268.548 C 146.314 269.346, 146.398 270, 146.809 270 C 147.467 270, 156 253.733, 156 252.477 C 156 252.205, 155.197 252.484, 154.216 253.097 C 152.741 254.019, 147.413 251.724, 123.466 239.856 C 101.314 228.877, 94.533 225.088, 94.639 223.750 C 94.918 220.232, 93.353 222.187, 89.223 230.515 M 472.500 255.333 C 464.800 259.338, 446.800 268.600, 432.500 275.916 C 418.200 283.233, 406.083 289.609, 405.573 290.086 C 405.013 290.611, 406.617 296.993, 409.630 306.227 L 414.614 321.500 449.645 286.298 C 483.360 252.417, 487.688 247.969, 486.872 248.026 C 486.668 248.041, 480.200 251.329, 472.500 255.333 M 261.087 274.500 C 285.901 323.042, 289.894 330.500, 291.198 330.736 C 291.914 330.866, 298.920 328.841, 306.766 326.236 L 321.032 321.500 284.415 285 L 247.797 248.500 261.087 274.500 M 668.495 286.517 C 667.774 287.616, 660.896 289.001, 643.500 291.550 C 603.593 297.398, 604.116 297.341, 602.475 295.979 C 601.365 295.058, 601 295.048, 601 295.936 C 601 298.048, 603.198 311.488, 603.615 311.927 C 603.838 312.162, 604.579 311.622, 605.260 310.728 C 607.063 308.363, 653.283 301.660, 651.961 303.955 C 651.472 304.805, 642.365 316.300, 631.723 329.500 C 619.869 344.204, 611.787 353.402, 610.860 353.246 C 609.205 352.968, 609.254 354.911, 611.153 364.823 C 612.020 369.349, 612.354 369.899, 613.384 368.490 C 615.145 366.081, 676.485 357.197, 679.285 358.946 C 681.018 360.028, 681.141 359.882, 680.659 357.317 C 680.367 355.768, 679.831 352.250, 679.467 349.500 C 678.659 343.395, 678.146 342.454, 676.654 344.338 C 675.896 345.295, 670.350 346.519, 660.500 347.904 C 652.250 349.064, 642.667 350.515, 639.205 351.128 C 635.743 351.742, 632.667 352, 632.370 351.703 C 632.073 351.406, 637.157 344.489, 643.669 336.332 C 650.181 328.174, 658.568 317.563, 662.308 312.750 C 666.048 307.938, 669.444 304, 669.854 304 C 670.264 304, 671.175 304.563, 671.878 305.250 C 672.911 306.261, 673.052 305.831, 672.612 303 C 672.313 301.075, 671.563 296.238, 670.944 292.250 C 670.325 288.262, 669.745 285, 669.655 285 C 669.564 285, 669.042 285.682, 668.495 286.517 M 84.854 289.382 C 72.683 292, 65.005 300.506, 61.968 314.736 C 60.257 322.751, 55.111 359.444, 55.626 359.959 C 55.891 360.225, 56.449 359.891, 56.866 359.217 C 57.459 358.257, 59.775 358.321, 67.561 359.509 C 82.940 361.855, 118.911 367, 119.938 367 C 120.444 367, 121.551 367.694, 122.399 368.542 C 123.788 369.931, 123.994 369.857, 124.475 367.792 C 125.615 362.904, 131 322.777, 131 319.172 C 131 303.610, 119.169 292.022, 100.308 289.110 C 91.909 287.814, 92.167 287.809, 84.854 289.382 M 83.384 303.850 C 78.588 306.101, 74.785 310.846, 73.245 316.500 C 71.820 321.734, 68.604 344.937, 69.218 345.552 C 69.811 346.145, 109.570 352, 113.002 352 C 115.479 352, 115.531 351.824, 117.764 335.750 C 120.332 317.262, 119.985 314.178, 114.765 309.074 C 108.595 303.042, 91.255 300.156, 83.384 303.850 M 388.981 346.855 L 368 367.685 368.068 452.593 C 368.108 502.899, 368.497 536.685, 369.023 535.500 C 369.511 534.400, 374.009 520.675, 379.020 505 C 384.030 489.325, 388.525 475.375, 389.009 474 C 389.493 472.625, 393.987 458.675, 398.997 443 C 404.006 427.325, 408.513 413.505, 409.013 412.289 C 409.823 410.319, 407.690 407.815, 389.424 389.289 L 368.926 368.500 453.213 368 C 500.945 367.717, 536.416 367.135, 535 366.658 C 533.625 366.194, 519.900 361.778, 504.500 356.843 C 489.100 351.908, 475.375 347.475, 474 346.992 C 472.625 346.508, 458.675 342.018, 443 337.013 C 427.325 332.008, 413.479 327.488, 412.231 326.969 C 410.178 326.115, 407.959 328.013, 388.981 346.855 M 0.422 368 C 0.422 379.275, 0.568 383.887, 0.746 378.250 C 0.924 372.613, 0.924 363.387, 0.746 357.750 C 0.568 352.113, 0.422 356.725, 0.422 368 M 203.500 370.131 C 211.061 372.635, 256.855 387.393, 293.500 399.133 C 308.900 404.067, 322.496 408.514, 323.714 409.014 C 325.690 409.826, 328.145 407.731, 346.464 389.595 C 357.759 378.414, 367 368.981, 367 368.633 C 367 368.285, 328.863 368.032, 282.250 368.071 L 197.500 368.143 203.500 370.131 M 429.500 409.634 C 421.800 412.166, 415.295 414.426, 415.044 414.658 C 414.794 414.889, 430.974 431.468, 451 451.500 C 471.026 471.532, 487.584 487.750, 487.794 487.539 C 488.130 487.204, 476.745 464.695, 453.126 419 C 449.288 411.575, 445.552 405.395, 444.824 405.266 C 444.096 405.137, 437.200 407.103, 429.500 409.634 M 80.378 410.437 C 76.139 412.282, 73.999 415.652, 74.005 420.473 C 74.012 426.121, 77.261 429.957, 82.652 430.680 C 95.362 432.385, 100.198 415.323, 88.401 410.394 C 84.395 408.720, 84.322 408.721, 80.378 410.437 M 646.420 411.145 C 640.855 413.845, 639.317 422.847, 643.560 427.889 C 650.104 435.666, 662 430.822, 662 420.381 C 662 412.873, 653.384 407.765, 646.420 411.145 M 286.361 449.579 C 267.187 468.873, 250.825 485.489, 250 486.504 C 249.175 487.518, 258.400 483.265, 270.500 477.051 C 322.939 450.122, 329.547 446.688, 330.395 445.920 C 331.147 445.240, 325.701 426.040, 322.192 417 C 321.264 414.607, 319.724 416.008, 286.361 449.579 M 596.360 445.752 C 596.255 447.791, 574.051 495.091, 570.228 501.420 C 569.921 501.928, 570.442 502.044, 571.393 501.679 C 572.500 501.255, 579.071 503.913, 589.807 509.128 C 598.988 513.589, 612.030 519.893, 618.788 523.137 C 625.547 526.382, 631.333 529.703, 631.645 530.518 C 632.261 532.121, 634 532.561, 634 531.113 C 634 528.811, 661.033 475.081, 662.645 474.179 C 663.656 473.613, 664.262 472.945, 663.992 472.694 C 663.391 472.136, 651.202 466, 650.695 466 C 650.496 466, 650.313 467.238, 650.289 468.750 C 650.250 471.174, 630.495 513, 629.389 513 C 629.151 513, 625.379 511.202, 621.008 509.004 C 614.989 505.978, 613.207 504.625, 613.665 503.431 C 616.731 495.442, 627.228 476, 628.475 476 C 631.578 476, 629.768 474.419, 623.323 471.500 C 619.680 469.850, 616.376 468.370, 615.981 468.210 C 615.586 468.051, 615.467 468.992, 615.717 470.302 C 616.021 471.892, 613.945 477.143, 609.473 486.092 C 605.788 493.466, 602.674 499.613, 602.553 499.750 C 602.061 500.310, 588 492.960, 588 492.143 C 588 489.911, 607.137 452.023, 608.709 451.143 C 609.685 450.597, 610.262 449.945, 609.992 449.694 C 609.449 449.190, 597.224 442.999, 596.779 443.002 C 596.625 443.004, 596.437 444.241, 596.360 445.752 M 110.045 446.082 C 98.501 448.372, 88.026 456.970, 84.146 467.338 C 77.408 485.347, 87.329 512.059, 105.237 524.129 C 108.681 526.450, 111.813 528.821, 112.196 529.396 C 113.037 530.662, 112.816 530.921, 117.333 523.369 C 121.511 516.383, 121.821 514.972, 119.016 515.706 C 111.845 517.581, 100.549 506.502, 96.067 493.199 C 90.313 476.120, 96.827 463.624, 113.876 459.033 C 126.388 455.664, 139.922 466.867, 144.639 484.500 C 146.516 491.519, 146.396 499.461, 144.381 501.476 C 143.490 502.367, 142.955 503.289, 143.192 503.525 C 143.667 504.001, 156.454 505.949, 159.307 505.980 C 160.974 505.998, 160.993 505.829, 159.557 503.777 C 158.564 502.361, 158 499.362, 158 495.507 C 158 481.620, 150.814 465.673, 140.078 455.732 C 131.324 447.628, 120.226 444.062, 110.045 446.082 M 557.957 528.389 C 557.156 529.146, 554.195 530.509, 551.379 531.420 C 530.365 538.212, 513.026 560.185, 514.187 578.550 C 514.919 590.127, 522.952 601.829, 534.162 607.648 C 538.755 610.032, 540.686 610.422, 548 610.439 C 555.852 610.458, 557.107 610.164, 564.470 606.586 C 576.186 600.893, 586.117 590.555, 592.914 576.978 C 598.225 566.370, 598.906 564, 596.642 564 C 594.827 564, 581 548.610, 581 546.590 C 581 545.715, 580.714 545, 580.365 545 C 580.015 545, 575.859 548.487, 571.128 552.750 C 566.397 557.013, 561.021 561.850, 559.182 563.500 C 557.342 565.150, 554.953 566.725, 553.872 567 C 552.142 567.440, 552.520 568.187, 557.034 573.250 C 562.483 579.362, 564 580.190, 564 577.050 C 564 575.977, 564.638 574.740, 565.417 574.300 C 566.196 573.860, 569.062 571.388, 571.785 568.807 L 576.735 564.114 579.565 567.068 C 582.275 569.897, 582.338 570.178, 581.056 573.760 C 577.772 582.931, 568.308 592.619, 559.360 595.967 C 549.390 599.697, 542.147 598.120, 534.344 590.521 C 522.949 579.424, 524.217 565.490, 537.774 552.808 C 545.700 545.395, 556.792 540.748, 561.081 543.044 C 562.231 543.659, 563.306 544.013, 563.472 543.831 C 563.949 543.305, 560.860 528.580, 560.100 527.757 C 559.723 527.349, 558.759 527.633, 557.957 528.389 M 173.500 535.107 C 160.334 538.091, 148.561 550.495, 145.981 564.101 C 142.937 580.151, 154.134 598.546, 172.446 607.580 C 179.699 611.158, 181.096 611.500, 188.446 611.500 C 198.424 611.500, 205.603 608.493, 212.796 601.299 C 226.419 587.676, 227.303 569.876, 215.148 553.936 C 207.636 544.085, 199.405 538.455, 188.311 535.581 C 181.580 533.836, 179.414 533.767, 173.500 535.107 M 176.994 547.879 C 165.357 551.675, 156.843 563.797, 158.421 574.323 C 160.318 586.974, 173.977 598.956, 186.500 598.956 C 199.316 598.956, 210.463 587.539, 210.378 574.500 C 210.316 565.133, 205.148 556.875, 195.849 551.284 C 190.158 547.863, 181.717 546.339, 176.994 547.879 M 477.904 582.799 C 477.085 583.755, 463.446 589.231, 447.594 594.966 C 429.309 601.582, 419.420 605.621, 420.542 606.015 C 422.886 606.837, 444.362 665.420, 443.532 668.728 C 442.893 671.273, 438.799 672.548, 483.259 656.354 C 494.676 652.195, 504.688 649.050, 505.509 649.365 C 507.445 650.108, 507.399 649.576, 504.920 642.465 C 502.736 636.200, 501 633.423, 501 636.193 C 501 637.069, 500.212 638.096, 499.250 638.475 C 490.138 642.062, 456.466 654, 455.462 654 C 454.749 654, 453.380 651.862, 452.421 649.250 C 451.461 646.638, 450.068 642.968, 449.325 641.096 C 448.582 639.225, 448.133 637.534, 448.327 637.339 C 448.522 637.145, 455.367 634.533, 463.540 631.535 C 474.560 627.493, 478.734 626.364, 479.699 627.165 C 481.572 628.720, 481.344 627.243, 478.500 619.401 C 477.125 615.610, 475.971 612.282, 475.937 612.004 C 475.902 611.727, 475.501 612.400, 475.047 613.500 C 474.547 614.710, 471.907 616.354, 468.360 617.663 C 449.834 624.502, 444.727 626.117, 444.053 625.352 C 443.640 624.883, 442.148 621.318, 440.738 617.429 L 438.175 610.357 447.337 607.087 C 452.377 605.288, 461.450 601.970, 467.500 599.714 C 473.550 597.459, 479.920 595.610, 481.656 595.606 L 484.813 595.600 482.289 588.550 C 480.901 584.673, 479.681 581.401, 479.579 581.280 C 479.477 581.159, 478.723 581.842, 477.904 582.799 M 257.453 584.852 C 257.795 585.931, 256.084 592.002, 253.432 599.115 C 250.892 605.927, 247.245 615.775, 245.327 621 C 237.332 642.782, 235.786 646.554, 234.415 647.620 C 233.283 648.499, 239.148 651.039, 261.737 659.453 C 277.557 665.345, 291.007 670.813, 291.626 671.605 C 292.527 672.756, 293.276 671.630, 295.376 665.964 C 296.819 662.071, 298 658.749, 298 658.581 C 298 658.414, 296.976 658.473, 295.724 658.712 C 294.440 658.958, 285.608 656.256, 275.474 652.519 C 251.458 643.662, 252 643.885, 252 642.846 C 252 642.345, 253.316 638.462, 254.925 634.218 C 256.534 629.973, 260.761 618.625, 264.319 609 C 268.652 597.277, 271.317 591.393, 272.393 591.177 C 275.033 590.646, 274.220 589.157, 270.750 588.165 C 268.962 587.654, 265.105 586.277, 262.178 585.104 C 257.106 583.073, 256.885 583.061, 257.453 584.852 M 337.411 609.509 C 339.245 610.898, 339.296 612.236, 338.697 643.216 C 338.294 664.037, 337.705 675.598, 337.036 675.821 C 336.466 676.011, 336 676.579, 336 677.083 C 336 677.619, 348.856 678, 366.941 678 C 386.490 678, 398.110 678.368, 398.500 679 C 400.132 681.640, 401 679.313, 401 672.300 C 401 666.311, 400.733 664.867, 399.800 665.800 C 398.935 666.665, 392.089 667, 375.300 667 L 352 667 352 639.571 C 352 616.524, 352.240 611.903, 353.500 610.643 C 354.325 609.818, 355 608.886, 355 608.571 C 355 608.257, 350.613 608.014, 345.250 608.032 C 336.528 608.060, 335.701 608.216, 337.411 609.509" stroke="none" fill="#d6122f" fill-rule="evenodd"/><path d="M 0.136 174.250 C 0.213 273.183, 0.627 344.394, 1.093 339 C 5.411 289.017, 18.164 243.840, 40.046 201.014 C 68.444 145.437, 111.203 97.234, 162.759 62.677 C 216.371 26.742, 273.606 6.742, 339 1.093 C 344.394 0.627, 273.183 0.213, 174.250 0.136 L 0 0 0.136 174.250 M 397 1.093 C 432.143 4.129, 464.300 11.184, 495.500 22.703 C 567.393 49.246, 630.548 98.985, 673.331 162.759 C 709.136 216.130, 729.272 273.763, 734.907 339 C 735.373 344.394, 735.787 273.183, 735.864 174.250 L 736 0 561.750 0.136 C 462.817 0.213, 391.606 0.627, 397 1.093 M 339.500 7.081 C 262.449 14.022, 195.923 41.048, 137 89.345 C 126.142 98.245, 98.412 125.953, 89.306 137 C 23.433 216.921, -4.928 318.751, 9.964 421.878 C 17.979 477.387, 41.434 534.444, 75.374 581 C 95.618 608.768, 125.600 638.949, 153 659.140 C 189.758 686.226, 233.347 707.174, 275.390 717.956 C 352.774 737.803, 429.350 733.096, 502.500 703.998 C 537.137 690.220, 568.819 671.394, 599 646.655 C 609.952 637.678, 637.678 609.952, 646.655 599 C 712.851 518.240, 740.950 417.400, 726.036 314.122 C 716.899 250.844, 689.067 188.743, 646.655 137 C 637.678 126.048, 609.952 98.322, 599 89.345 C 531.997 34.425, 451.006 5.503, 366 6.139 C 356.375 6.211, 344.450 6.635, 339.500 7.081 M 346 17.579 C 283.600 22.789, 234.783 38.351, 183.685 69.323 C 138.611 96.643, 96.136 139.345, 68.423 185.201 C 40.894 230.752, 25.776 275.203, 18.837 331 C 17.113 344.859, 17.113 391.141, 18.837 405 C 23.444 442.045, 31.296 472.543, 44.196 503.500 C 78.943 586.887, 146.767 655.254, 230 690.793 C 260.972 704.017, 293.422 712.490, 331 717.163 C 344.859 718.887, 391.141 718.887, 405 717.163 C 461.300 710.161, 505.650 694.962, 552.315 666.677 C 597.389 639.357, 639.864 596.655, 667.577 550.799 C 695.106 505.248, 710.224 460.797, 717.163 405 C 718.887 391.141, 718.887 344.859, 717.163 331 C 716.445 325.225, 714.771 314.198, 713.443 306.496 C 695.996 205.286, 632.656 115.210, 542.612 63.554 C 501.303 39.856, 458.948 25.826, 409.500 19.460 C 398.198 18.005, 355.904 16.752, 346 17.579 M 347.500 35.581 C 286.441 40.086, 233.201 57.992, 184.025 90.562 C 106.418 141.964, 54.138 223.292, 39.107 316 C 36.218 333.817, 35.574 343.297, 35.574 368 C 35.574 392.703, 36.218 402.183, 39.107 420 C 49.721 485.466, 78.819 545.644, 122.758 593 C 175.096 649.409, 240.712 684.686, 316 696.893 C 333.817 699.782, 343.297 700.426, 368 700.426 C 392.703 700.426, 402.183 699.782, 420 696.893 C 520.353 680.623, 606.131 621.378, 657.296 533 C 678.994 495.521, 692.788 453.042, 699.186 404 C 700.811 391.552, 700.811 344.448, 699.186 332 C 694.732 297.857, 688.282 272.233, 677.036 244 C 639.604 150.030, 558.337 76.314, 461.500 48.491 C 430.055 39.457, 407.552 36.116, 374.500 35.573 C 362.400 35.375, 350.250 35.378, 347.500 35.581 M 400.894 58.372 C 401.766 59.423, 400.621 65.932, 396.014 86.122 C 392.703 100.630, 389.496 114.750, 388.886 117.500 C 388.276 120.250, 387.137 123.010, 386.356 123.634 C 385.233 124.530, 386.437 125.108, 392.090 126.384 C 398.905 127.923, 404.021 128.456, 401.250 127.338 C 400.563 127.060, 400 126.054, 400 125.102 C 400 122.989, 408.606 84.240, 409.780 81.067 C 410.509 79.095, 411.971 81.136, 420.945 96.649 C 426.624 106.467, 433.659 118.550, 436.577 123.500 C 442.728 133.934, 443.642 136, 442.107 136 C 441.498 136, 441 136.342, 441 136.759 C 441 137.398, 454.850 141.002, 457.300 141 C 457.740 141, 457.692 140.272, 457.194 139.381 C 456.598 138.318, 457.110 134.291, 458.688 127.631 C 460.009 122.059, 463.126 108.275, 465.615 97 C 468.932 81.976, 470.651 76.060, 472.052 74.854 C 473.872 73.288, 473.622 73.132, 466.859 71.604 C 457.959 69.594, 456.378 69.545, 457.855 71.325 C 458.661 72.297, 458.560 74.231, 457.474 78.575 C 456.660 81.834, 454.457 91.400, 452.579 99.834 C 450.701 108.268, 448.940 115.394, 448.665 115.669 C 448.390 115.944, 445.577 111.743, 442.415 106.334 C 436.834 96.790, 422.666 72.760, 418.822 66.321 C 417.014 63.292, 417.008 63.095, 418.698 62.149 C 420.290 61.258, 420.217 61.097, 417.986 60.579 C 400.016 56.404, 399.170 56.295, 400.894 58.372 M 334.750 58.735 C 332.137 58.941, 330 59.535, 330 60.055 C 330 60.575, 330.643 61, 331.428 61 C 332.416 61, 333.021 62.617, 333.391 66.250 C 334.061 72.819, 335.593 89.675, 337.005 106 C 337.600 112.875, 338.278 120.054, 338.513 121.954 C 338.794 124.220, 338.388 126.019, 337.334 127.183 C 335.804 128.874, 336.126 128.929, 344.114 128.332 C 351.884 127.751, 359.089 126.224, 354.817 126.063 C 353.892 126.029, 352.909 125.213, 352.633 124.250 C 352.357 123.287, 350.897 108.602, 349.388 91.616 C 346.716 61.535, 346.693 60.697, 348.514 59.366 C 350.170 58.155, 349.764 58.020, 344.941 58.180 C 341.949 58.279, 337.363 58.529, 334.750 58.735 M 273.500 70.608 C 266.219 73.770, 263.584 75.382, 263.808 76.538 C 263.978 77.411, 260.990 83.834, 257.170 90.812 C 253.349 97.791, 248.757 106.200, 246.964 109.500 C 245.171 112.800, 243.573 115.661, 243.411 115.858 C 243.089 116.250, 241.713 113.186, 235.994 99.344 C 233.291 92.801, 232.519 89.881, 233.289 89.111 C 235.588 86.812, 233.173 87.303, 225.274 90.740 C 218.771 93.569, 217.350 94.545, 218.480 95.409 C 220.198 96.721, 219.331 94.737, 240.146 145 C 242.583 150.883, 243.868 155.354, 243.523 156.742 L 242.966 158.984 248.233 156.861 C 262.258 151.206, 261.235 151.807, 258.917 150.596 C 257.611 149.914, 255.332 145.914, 252.878 140 L 248.936 130.500 252.641 123.393 L 256.345 116.286 262.423 119.501 C 265.765 121.269, 273.450 125.307, 279.500 128.474 C 291.836 134.931, 293.211 135.850, 292.430 137.113 C 291.506 138.608, 293.147 138.153, 302.736 134.254 C 311.229 130.802, 313.965 129, 310.713 129 C 310.005 129, 305.842 127.139, 301.463 124.866 C 287.994 117.872, 263.545 104.878, 263.193 104.526 C 263.009 104.343, 264.531 101.112, 266.574 97.346 C 278.146 76.016, 281.366 70.327, 282.767 68.744 C 283.622 67.778, 284.136 66.825, 283.911 66.627 C 283.685 66.428, 279 68.220, 273.500 70.608 M 516.637 105.408 C 512.275 107.027, 507.508 111.185, 505.411 115.200 C 503.601 118.664, 503.597 126.321, 505.403 129.813 C 507.226 133.337, 515.499 141.071, 525.289 148.403 C 537.726 157.717, 540.644 163.168, 535.686 167.826 C 532.671 170.658, 528.405 170.602, 521.779 167.643 C 507.541 161.286, 493.795 145.989, 496.977 140.043 C 498.776 136.682, 498.154 136.778, 490 141.123 C 481.853 145.464, 480.900 146.364, 483.424 147.333 C 484.208 147.633, 485.641 149.594, 486.608 151.690 C 488.933 156.724, 502.129 169.640, 509.240 173.840 C 518.894 179.543, 525.865 181.950, 532.800 181.976 C 539.725 182.002, 543.117 180.669, 547.136 176.339 C 555.191 167.662, 554.854 157.670, 546.201 148.636 C 544.166 146.511, 538 141.412, 532.500 137.306 C 517.404 126.036, 515.173 122.369, 520.747 117.984 C 524.003 115.423, 528.715 115.803, 535.342 119.160 C 546.958 125.044, 559.568 139.471, 557.594 144.617 C 556.803 146.678, 558.286 146.333, 565.481 142.785 C 571.654 139.741, 573.537 138.024, 570.750 137.980 C 570.063 137.969, 568.150 135.671, 566.500 132.872 C 555.646 114.464, 530.117 100.402, 516.637 105.408 M 175 129.051 C 175 129.892, 171.145 132.358, 165.825 134.919 C 144.977 144.959, 131.468 165.072, 133.368 183.247 C 135.314 201.864, 154.529 216.583, 172.102 212.916 C 191.144 208.943, 209.192 191.004, 213.044 172.219 C 213.689 169.074, 214.629 165.991, 215.133 165.368 C 215.784 164.563, 214.091 163.896, 209.275 163.062 C 205.549 162.416, 201.713 161.730, 200.750 161.537 C 198.797 161.147, 198.383 162.501, 200.126 163.578 C 200.857 164.029, 201.067 166.321, 200.725 170.093 C 199.384 184.889, 183.190 200.348, 169 200.379 C 162.047 200.394, 156.654 197.686, 151.123 191.402 C 142.136 181.193, 143.442 168.926, 154.808 156.774 C 162.214 148.856, 175.320 142.361, 178.524 145.020 C 180.506 146.665, 180.473 144.846, 178.362 136.206 C 176.787 129.758, 175 125.954, 175 129.051 M 346.467 143.982 C 318.409 146.955, 291.315 154.816, 266.720 167.120 C 224.699 188.141, 188.141 224.699, 167.120 266.720 C 150.739 299.465, 143.537 330.395, 143.537 368 C 143.537 405.710, 150.694 436.444, 167.120 469.280 C 188.141 511.301, 224.699 547.859, 266.720 568.880 C 299.465 585.261, 330.395 592.463, 368 592.463 C 388.647 592.463, 398.038 591.555, 415.493 587.871 C 500.938 569.837, 569.837 500.938, 587.871 415.493 C 591.555 398.038, 592.463 388.647, 592.463 368 C 592.463 347.353, 591.555 337.962, 587.871 320.507 C 573.701 253.369, 527.117 194.464, 465 165.138 C 444.142 155.291, 423.077 148.783, 401.500 145.521 C 388.778 143.597, 358.176 142.741, 346.467 143.982 M 352 149.562 C 333 151.685, 326.735 152.710, 315.451 155.542 C 286.063 162.917, 258.137 176.292, 234.968 194.087 C 222.834 203.407, 203.407 222.834, 194.087 234.968 C 172.218 263.440, 157.163 298.928, 151.335 335.744 C 148.978 350.636, 148.978 385.364, 151.335 400.256 C 157.163 437.072, 172.218 472.560, 194.087 501.032 C 203.407 513.166, 222.834 532.593, 234.968 541.913 C 257.554 559.261, 285.410 572.757, 313.662 580.042 C 333.740 585.219, 343.248 586.317, 368 586.317 C 392.752 586.317, 402.260 585.219, 422.338 580.042 C 450.590 572.757, 478.446 559.261, 501.032 541.913 C 513.166 532.593, 532.593 513.166, 541.913 501.032 C 563.782 472.560, 578.837 437.072, 584.665 400.256 C 587.004 385.482, 587.039 350.616, 584.730 335.951 C 578.945 299.212, 563.773 263.429, 541.913 234.968 C 532.593 222.834, 513.166 203.407, 501.032 194.087 C 472.865 172.453, 436.518 156.953, 401.098 151.471 C 391.819 150.035, 359.141 148.764, 352 149.562 M 343 161.542 C 286.835 168.489, 236.585 197.408, 202.283 242.524 C 154.946 304.785, 146.748 388.904, 181.166 459.199 C 216.068 530.480, 288.863 575.983, 368 575.983 C 482.438 575.983, 575.983 482.438, 575.983 368 C 575.983 252.897, 481.488 159.130, 366.500 160.130 C 359.350 160.193, 348.775 160.828, 343 161.542 M 347.500 179.105 C 301.382 184.722, 261.216 204.704, 230.216 237.453 C 171.839 299.124, 161.302 391.364, 204.315 464.197 C 254.997 550.017, 362.430 582.239, 451.700 538.394 C 545.869 492.143, 584.650 378.479, 538.394 284.300 C 506.254 218.861, 439.080 177.363, 366.526 178.126 C 359.912 178.196, 351.350 178.637, 347.500 179.105 M 358.622 206.250 C 337.861 270.688, 333.817 283, 333.416 283 C 333.183 283, 310.894 271.949, 283.886 258.443 C 256.878 244.937, 234.566 234.101, 234.303 234.363 C 233.873 234.793, 238.616 244.232, 259.998 285.500 C 272.413 309.461, 284.193 333.141, 283.845 333.439 C 283.655 333.601, 272.250 337.358, 258.500 341.788 C 189.346 364.069, 179 367.482, 179 368.012 C 179 368.328, 185.637 370.731, 193.750 373.352 C 201.863 375.973, 215.250 380.301, 223.500 382.971 C 231.750 385.640, 248.625 391.071, 261 395.039 C 273.375 399.007, 283.658 402.392, 283.852 402.562 C 284.311 402.965, 273.902 423.570, 243.552 482.330 C 238.203 492.686, 234.054 501.388, 234.333 501.667 C 234.790 502.124, 243.998 497.505, 285.500 476.002 C 309.461 463.587, 333.141 451.807, 333.439 452.155 C 333.601 452.345, 337.433 463.975, 341.954 478 C 346.476 492.025, 351.631 508, 353.410 513.500 C 355.189 519, 359.063 531.038, 362.019 540.250 C 364.974 549.462, 367.666 557, 368 557 C 368.334 557, 371.026 549.462, 373.981 540.250 C 376.937 531.038, 380.811 519, 382.590 513.500 C 384.369 508, 389.524 492.025, 394.046 478 C 398.567 463.975, 402.399 452.345, 402.561 452.155 C 402.859 451.807, 426.539 463.587, 450.500 476.002 C 492.002 497.505, 501.210 502.124, 501.667 501.667 C 502.124 501.210, 497.505 492.002, 476.002 450.500 C 463.557 426.482, 451.808 402.859, 452.155 402.555 C 452.345 402.389, 462.625 399.007, 475 395.039 C 487.375 391.071, 504.250 385.640, 512.500 382.971 C 520.750 380.301, 534.138 375.973, 542.250 373.352 C 550.362 370.731, 557 368.328, 557 368.012 C 557 367.482, 546.654 364.069, 477.500 341.788 C 463.750 337.358, 452.345 333.601, 452.155 333.439 C 451.807 333.141, 463.587 309.461, 476.002 285.500 C 497.505 243.998, 502.124 234.790, 501.667 234.333 C 501.210 233.876, 492.002 238.495, 450.500 259.998 C 426.539 272.413, 402.859 284.193, 402.561 283.845 C 402.399 283.655, 398.646 272.250, 394.220 258.500 C 371.640 188.349, 368.557 179, 368.003 179 C 367.672 179, 363.451 191.262, 358.622 206.250 M 587.908 183.831 C 572.682 189.986, 564 201.875, 564 216.569 C 564 232.567, 575.367 250.612, 589.959 257.779 C 594.670 260.092, 596.773 260.500, 604 260.500 C 611.115 260.500, 613.425 260.066, 618.175 257.840 C 633.838 250.497, 642.100 235.414, 639.039 219.750 C 636.324 205.861, 626.071 191.614, 614.573 185.756 C 606.714 181.751, 595.121 180.914, 587.908 183.831 M 593.703 196.383 C 579.042 201.843, 572.838 214.586, 578.071 228.493 C 581.099 236.542, 589.500 245.066, 596.254 246.942 C 604.525 249.239, 613.585 246.570, 620.738 239.729 C 631.812 229.135, 627.410 207.185, 612.453 198.419 C 607.088 195.275, 599.027 194.400, 593.703 196.383 M 365.655 203.750 C 364.690 206.912, 359.835 222.100, 354.867 237.500 C 349.900 252.900, 341.799 278.100, 336.866 293.500 C 331.932 308.900, 327.466 322.541, 326.941 323.812 C 326.071 325.920, 327.847 328.001, 346.993 347.300 L 368 368.475 368 283.238 C 368 236.357, 367.868 198, 367.706 198 C 367.544 198, 366.621 200.588, 365.655 203.750 M 89.223 230.515 C 86.900 235.198, 85 239.252, 85 239.523 C 85 239.795, 85.805 239.514, 86.789 238.900 C 88.272 237.974, 93.597 240.293, 117.878 252.439 C 139.671 263.340, 147.035 267.467, 146.620 268.548 C 146.314 269.346, 146.398 270, 146.809 270 C 147.467 270, 156 253.733, 156 252.477 C 156 252.205, 155.197 252.484, 154.216 253.097 C 152.741 254.019, 147.413 251.724, 123.466 239.856 C 101.314 228.877, 94.533 225.088, 94.639 223.750 C 94.918 220.232, 93.353 222.187, 89.223 230.515 M 472.500 255.333 C 464.800 259.338, 446.800 268.600, 432.500 275.916 C 418.200 283.233, 406.083 289.609, 405.573 290.086 C 405.013 290.611, 406.617 296.993, 409.630 306.227 L 414.614 321.500 449.645 286.298 C 483.360 252.417, 487.688 247.969, 486.872 248.026 C 486.668 248.041, 480.200 251.329, 472.500 255.333 M 261.087 274.500 C 285.901 323.042, 289.894 330.500, 291.198 330.736 C 291.914 330.866, 298.920 328.841, 306.766 326.236 L 321.032 321.500 284.415 285 L 247.797 248.500 261.087 274.500 M 668.495 286.517 C 667.774 287.616, 660.896 289.001, 643.500 291.550 C 603.593 297.398, 604.116 297.341, 602.475 295.979 C 601.365 295.058, 601 295.048, 601 295.936 C 601 298.048, 603.198 311.488, 603.615 311.927 C 603.838 312.162, 604.579 311.622, 605.260 310.728 C 607.063 308.363, 653.283 301.660, 651.961 303.955 C 651.472 304.805, 642.365 316.300, 631.723 329.500 C 619.869 344.204, 611.787 353.402, 610.860 353.246 C 609.205 352.968, 609.254 354.911, 611.153 364.823 C 612.020 369.349, 612.354 369.899, 613.384 368.490 C 615.145 366.081, 676.485 357.197, 679.285 358.946 C 681.018 360.028, 681.141 359.882, 680.659 357.317 C 680.367 355.768, 679.831 352.250, 679.467 349.500 C 678.659 343.395, 678.146 342.454, 676.654 344.338 C 675.896 345.295, 670.350 346.519, 660.500 347.904 C 652.250 349.064, 642.667 350.515, 639.205 351.128 C 635.743 351.742, 632.667 352, 632.370 351.703 C 632.073 351.406, 637.157 344.489, 643.669 336.332 C 650.181 328.174, 658.568 317.563, 662.308 312.750 C 666.048 307.938, 669.444 304, 669.854 304 C 670.264 304, 671.175 304.563, 671.878 305.250 C 672.911 306.261, 673.052 305.831, 672.612 303 C 672.313 301.075, 671.563 296.238, 670.944 292.250 C 670.325 288.262, 669.745 285, 669.655 285 C 669.564 285, 669.042 285.682, 668.495 286.517 M 84.854 289.382 C 72.683 292, 65.005 300.506, 61.968 314.736 C 60.257 322.751, 55.111 359.444, 55.626 359.959 C 55.891 360.225, 56.449 359.891, 56.866 359.217 C 57.459 358.257, 59.775 358.321, 67.561 359.509 C 82.940 361.855, 118.911 367, 119.938 367 C 120.444 367, 121.551 367.694, 122.399 368.542 C 123.788 369.931, 123.994 369.857, 124.475 367.792 C 125.615 362.904, 131 322.777, 131 319.172 C 131 303.610, 119.169 292.022, 100.308 289.110 C 91.909 287.814, 92.167 287.809, 84.854 289.382 M 83.384 303.850 C 78.588 306.101, 74.785 310.846, 73.245 316.500 C 71.820 321.734, 68.604 344.937, 69.218 345.552 C 69.811 346.145, 109.570 352, 113.002 352 C 115.479 352, 115.531 351.824, 117.764 335.750 C 120.332 317.262, 119.985 314.178, 114.765 309.074 C 108.595 303.042, 91.255 300.156, 83.384 303.850 M 388.981 346.855 L 368 367.685 368.068 452.593 C 368.108 502.899, 368.497 536.685, 369.023 535.500 C 369.511 534.400, 374.009 520.675, 379.020 505 C 384.030 489.325, 388.525 475.375, 389.009 474 C 389.493 472.625, 393.987 458.675, 398.997 443 C 404.006 427.325, 408.513 413.505, 409.013 412.289 C 409.823 410.319, 407.690 407.815, 389.424 389.289 L 368.926 368.500 453.213 368 C 500.945 367.717, 536.416 367.135, 535 366.658 C 533.625 366.194, 519.900 361.778, 504.500 356.843 C 489.100 351.908, 475.375 347.475, 474 346.992 C 472.625 346.508, 458.675 342.018, 443 337.013 C 427.325 332.008, 413.479 327.488, 412.231 326.969 C 410.178 326.115, 407.959 328.013, 388.981 346.855 M 203.500 370.131 C 211.061 372.635, 256.855 387.393, 293.500 399.133 C 308.900 404.067, 322.496 408.514, 323.714 409.014 C 325.690 409.826, 328.145 407.731, 346.464 389.595 C 357.759 378.414, 367 368.981, 367 368.633 C 367 368.285, 328.863 368.032, 282.250 368.071 L 197.500 368.143 203.500 370.131 M 0.136 561.750 L 0 736 174.250 735.869 C 321.957 735.757, 346.444 735.544, 335 734.470 C 271.345 728.495, 215.485 708.664, 162.759 673.323 C 94.705 627.708, 43.656 560.133, 17.852 481.508 C 9.464 455.950, 3.655 426.657, 1.093 397 C 0.627 391.606, 0.213 462.817, 0.136 561.750 M 734.587 398.750 C 733.944 408.829, 733.477 412.649, 730.891 429 C 715.500 526.318, 656.771 617.335, 573.241 673.323 C 520.515 708.664, 464.655 728.495, 401 734.470 C 389.556 735.544, 414.043 735.757, 561.750 735.869 L 736 736 736 562 C 736 466.300, 735.836 388, 735.636 388 C 735.437 388, 734.964 392.837, 734.587 398.750 M 429.500 409.634 C 421.800 412.166, 415.295 414.426, 415.044 414.658 C 414.794 414.889, 430.974 431.468, 451 451.500 C 471.026 471.532, 487.584 487.750, 487.794 487.539 C 488.130 487.204, 476.745 464.695, 453.126 419 C 449.288 411.575, 445.552 405.395, 444.824 405.266 C 444.096 405.137, 437.200 407.103, 429.500 409.634 M 80.378 410.437 C 76.139 412.282, 73.999 415.652, 74.005 420.473 C 74.012 426.121, 77.261 429.957, 82.652 430.680 C 95.362 432.385, 100.198 415.323, 88.401 410.394 C 84.395 408.720, 84.322 408.721, 80.378 410.437 M 646.420 411.145 C 640.855 413.845, 639.317 422.847, 643.560 427.889 C 650.104 435.666, 662 430.822, 662 420.381 C 662 412.873, 653.384 407.765, 646.420 411.145 M 286.361 449.579 C 267.187 468.873, 250.825 485.489, 250 486.504 C 249.175 487.518, 258.400 483.265, 270.500 477.051 C 322.939 450.122, 329.547 446.688, 330.395 445.920 C 331.147 445.240, 325.701 426.040, 322.192 417 C 321.264 414.607, 319.724 416.008, 286.361 449.579 M 596.360 445.752 C 596.255 447.791, 574.051 495.091, 570.228 501.420 C 569.921 501.928, 570.442 502.044, 571.393 501.679 C 572.500 501.255, 579.071 503.913, 589.807 509.128 C 598.988 513.589, 612.030 519.893, 618.788 523.137 C 625.547 526.382, 631.333 529.703, 631.645 530.518 C 632.261 532.121, 634 532.561, 634 531.113 C 634 528.811, 661.033 475.081, 662.645 474.179 C 663.656 473.613, 664.262 472.945, 663.992 472.694 C 663.391 472.136, 651.202 466, 650.695 466 C 650.496 466, 650.313 467.238, 650.289 468.750 C 650.250 471.174, 630.495 513, 629.389 513 C 629.151 513, 625.379 511.202, 621.008 509.004 C 614.989 505.978, 613.207 504.625, 613.665 503.431 C 616.731 495.442, 627.228 476, 628.475 476 C 631.578 476, 629.768 474.419, 623.323 471.500 C 619.680 469.850, 616.376 468.370, 615.981 468.210 C 615.586 468.051, 615.467 468.992, 615.717 470.302 C 616.021 471.892, 613.945 477.143, 609.473 486.092 C 605.788 493.466, 602.674 499.613, 602.553 499.750 C 602.061 500.310, 588 492.960, 588 492.143 C 588 489.911, 607.137 452.023, 608.709 451.143 C 609.685 450.597, 610.262 449.945, 609.992 449.694 C 609.449 449.190, 597.224 442.999, 596.779 443.002 C 596.625 443.004, 596.437 444.241, 596.360 445.752 M 110.045 446.082 C 98.501 448.372, 88.026 456.970, 84.146 467.338 C 77.408 485.347, 87.329 512.059, 105.237 524.129 C 108.681 526.450, 111.813 528.821, 112.196 529.396 C 113.037 530.662, 112.816 530.921, 117.333 523.369 C 121.511 516.383, 121.821 514.972, 119.016 515.706 C 111.845 517.581, 100.549 506.502, 96.067 493.199 C 90.313 476.120, 96.827 463.624, 113.876 459.033 C 126.388 455.664, 139.922 466.867, 144.639 484.500 C 146.516 491.519, 146.396 499.461, 144.381 501.476 C 143.490 502.367, 142.955 503.289, 143.192 503.525 C 143.667 504.001, 156.454 505.949, 159.307 505.980 C 160.974 505.998, 160.993 505.829, 159.557 503.777 C 158.564 502.361, 158 499.362, 158 495.507 C 158 481.620, 150.814 465.673, 140.078 455.732 C 131.324 447.628, 120.226 444.062, 110.045 446.082 M 557.957 528.389 C 557.156 529.146, 554.195 530.509, 551.379 531.420 C 530.365 538.212, 513.026 560.185, 514.187 578.550 C 514.919 590.127, 522.952 601.829, 534.162 607.648 C 538.755 610.032, 540.686 610.422, 548 610.439 C 555.852 610.458, 557.107 610.164, 564.470 606.586 C 576.186 600.893, 586.117 590.555, 592.914 576.978 C 598.225 566.370, 598.906 564, 596.642 564 C 594.827 564, 581 548.610, 581 546.590 C 581 545.715, 580.714 545, 580.365 545 C 580.015 545, 575.859 548.487, 571.128 552.750 C 566.397 557.013, 561.021 561.850, 559.182 563.500 C 557.342 565.150, 554.953 566.725, 553.872 567 C 552.142 567.440, 552.520 568.187, 557.034 573.250 C 562.483 579.362, 564 580.190, 564 577.050 C 564 575.977, 564.638 574.740, 565.417 574.300 C 566.196 573.860, 569.062 571.388, 571.785 568.807 L 576.735 564.114 579.565 567.068 C 582.275 569.897, 582.338 570.178, 581.056 573.760 C 577.772 582.931, 568.308 592.619, 559.360 595.967 C 549.390 599.697, 542.147 598.120, 534.344 590.521 C 522.949 579.424, 524.217 565.490, 537.774 552.808 C 545.700 545.395, 556.792 540.748, 561.081 543.044 C 562.231 543.659, 563.306 544.013, 563.472 543.831 C 563.949 543.305, 560.860 528.580, 560.100 527.757 C 559.723 527.349, 558.759 527.633, 557.957 528.389 M 173.500 535.107 C 160.334 538.091, 148.561 550.495, 145.981 564.101 C 142.937 580.151, 154.134 598.546, 172.446 607.580 C 179.699 611.158, 181.096 611.500, 188.446 611.500 C 198.424 611.500, 205.603 608.493, 212.796 601.299 C 226.419 587.676, 227.303 569.876, 215.148 553.936 C 207.636 544.085, 199.405 538.455, 188.311 535.581 C 181.580 533.836, 179.414 533.767, 173.500 535.107 M 176.994 547.879 C 165.357 551.675, 156.843 563.797, 158.421 574.323 C 160.318 586.974, 173.977 598.956, 186.500 598.956 C 199.316 598.956, 210.463 587.539, 210.378 574.500 C 210.316 565.133, 205.148 556.875, 195.849 551.284 C 190.158 547.863, 181.717 546.339, 176.994 547.879 M 477.904 582.799 C 477.085 583.755, 463.446 589.231, 447.594 594.966 C 429.309 601.582, 419.420 605.621, 420.542 606.015 C 422.886 606.837, 444.362 665.420, 443.532 668.728 C 442.893 671.273, 438.799 672.548, 483.259 656.354 C 494.676 652.195, 504.688 649.050, 505.509 649.365 C 507.445 650.108, 507.399 649.576, 504.920 642.465 C 502.736 636.200, 501 633.423, 501 636.193 C 501 637.069, 500.212 638.096, 499.250 638.475 C 490.138 642.062, 456.466 654, 455.462 654 C 454.749 654, 453.380 651.862, 452.421 649.250 C 451.461 646.638, 450.068 642.968, 449.325 641.096 C 448.582 639.225, 448.133 637.534, 448.327 637.339 C 448.522 637.145, 455.367 634.533, 463.540 631.535 C 474.560 627.493, 478.734 626.364, 479.699 627.165 C 481.572 628.720, 481.344 627.243, 478.500 619.401 C 477.125 615.610, 475.971 612.282, 475.937 612.004 C 475.902 611.727, 475.501 612.400, 475.047 613.500 C 474.547 614.710, 471.907 616.354, 468.360 617.663 C 449.834 624.502, 444.727 626.117, 444.053 625.352 C 443.640 624.883, 442.148 621.318, 440.738 617.429 L 438.175 610.357 447.337 607.087 C 452.377 605.288, 461.450 601.970, 467.500 599.714 C 473.550 597.459, 479.920 595.610, 481.656 595.606 L 484.813 595.600 482.289 588.550 C 480.901 584.673, 479.681 581.401, 479.579 581.280 C 479.477 581.159, 478.723 581.842, 477.904 582.799 M 257.453 584.852 C 257.795 585.931, 256.084 592.002, 253.432 599.115 C 250.892 605.927, 247.245 615.775, 245.327 621 C 237.332 642.782, 235.786 646.554, 234.415 647.620 C 233.283 648.499, 239.148 651.039, 261.737 659.453 C 277.557 665.345, 291.007 670.813, 291.626 671.605 C 292.527 672.756, 293.276 671.630, 295.376 665.964 C 296.819 662.071, 298 658.749, 298 658.581 C 298 658.414, 296.976 658.473, 295.724 658.712 C 294.440 658.958, 285.608 656.256, 275.474 652.519 C 251.458 643.662, 252 643.885, 252 642.846 C 252 642.345, 253.316 638.462, 254.925 634.218 C 256.534 629.973, 260.761 618.625, 264.319 609 C 268.652 597.277, 271.317 591.393, 272.393 591.177 C 275.033 590.646, 274.220 589.157, 270.750 588.165 C 268.962 587.654, 265.105 586.277, 262.178 585.104 C 257.106 583.073, 256.885 583.061, 257.453 584.852 M 337.411 609.509 C 339.245 610.898, 339.296 612.236, 338.697 643.216 C 338.294 664.037, 337.705 675.598, 337.036 675.821 C 336.466 676.011, 336 676.579, 336 677.083 C 336 677.619, 348.856 678, 366.941 678 C 386.490 678, 398.110 678.368, 398.500 679 C 400.132 681.640, 401 679.313, 401 672.300 C 401 666.311, 400.733 664.867, 399.800 665.800 C 398.935 666.665, 392.089 667, 375.300 667 L 352 667 352 639.571 C 352 616.524, 352.240 611.903, 353.500 610.643 C 354.325 609.818, 355 608.886, 355 608.571 C 355 608.257, 350.613 608.014, 345.250 608.032 C 336.528 608.060, 335.701 608.216, 337.411 609.509" stroke="none" fill="#fbf8f9" fill-rule="evenodd"/></svg>